<?xml version="1.0" encoding="UTF-8"?>
<!DOCTYPE svg PUBLIC "-//W3C//DTD SVG 1.1//EN" "http://www.w3.org/Graphics/SVG/1.1/DTD/svg11.dtd">
<!-- Creator: CorelDRAW 2018 (64 Bit) -->
<svg xmlns="http://www.w3.org/2000/svg" xml:space="preserve" width="239.558mm" height="50.3532mm" version="1.1" style="shape-rendering:geometricPrecision; text-rendering:geometricPrecision; image-rendering:optimizeQuality; fill-rule:evenodd; clip-rule:evenodd"
viewBox="0 0 37332.68 7847.04"
 xmlns:xlink="http://www.w3.org/1999/xlink">
 <defs>
  <style type="text/css">
   <![CDATA[
    .str0 {stroke:#3E4095;stroke-width:31.17;stroke-miterlimit:22.9256}
    .fil0 {fill:#FEFEFE}
    .fil2 {fill:#FEFEFE;fill-rule:nonzero}
    .fil1 {fill:url(#id0)}
   ]]>
  </style>
  <linearGradient id="id0" gradientUnits="userSpaceOnUse" x1="697.8" y1="3917.97" x2="35995.91" y2="3917.97">
   <stop offset="0" style="stop-opacity:1; stop-color:#001B4B"/>
   <stop offset="1" style="stop-opacity:1; stop-color:#2C2E3E"/>
  </linearGradient>
 </defs>
 <g id="Capa_x0020_1">
  <metadata id="CorelCorpID_0Corel-Layer"/>
  <path class="fil0 str0" d="M30788.4 1109.22l0 -1081.87 6513.92 3860.98 -6513.92 3931.11 0 -1049.96c-9282.65,0 -19630.24,1.81 -28911.38,1.81 -1023.59,0 -1861.43,-837.61 -1861.43,-1861.43l0 -1941.2c0,-1023.82 837.61,-1861.43 1861.43,-1861.43 9281.14,0 19628.54,1.99 28911.38,1.99z"/>
  <path class="fil1" d="M31458.98 6098.91l0 532.65 4536.94 -2738.03 -4536.94 -2689.21 0 575.49c-9505.61,4.64 -20077.25,9.72 -29582.02,9.72 -648.37,0 -1179.15,530.76 -1179.15,1179.13l0 1941.2c0,648.39 530.65,1179.15 1179.15,1179.15 9504.77,0 20076.46,5.25 29582.02,9.9z"/>
  <path class="fil2" d="M2628.4 2151.21c-1031.97,0 -1430.47,367.84 -1430.47,1348.76l0 878.77c0,980.92 398.5,1348.76 1430.47,1348.76l2304.16 0c76.64,0 112.42,-35.8 112.42,-112.42l0 -500.65c0,-76.64 -35.78,-112.42 -112.42,-112.42l-2273.5 0c-526.19,0 -679.46,-158.33 -679.46,-699.91l0 -725.5c0,-541.56 153.27,-694.83 679.46,-694.83l2273.5 0c76.64,0 112.42,-40.86 112.42,-117.49l0 -500.67c0,-76.63 -35.78,-112.41 -112.42,-112.41l-2304.16 0zm3080.69 0c-76.63,0 -117.47,35.78 -117.47,112.41l0 3351.46c0,76.63 40.85,112.42 117.47,112.42l551.78 0c76.63,0 112.41,-35.8 112.41,-112.42l0 -1358.97 2390.99 0 0 1358.97c0,76.63 35.78,112.42 112.42,112.42l551.77 0c76.64,0 117.49,-35.8 117.49,-112.42l0 -3351.46c0,-76.63 -40.85,-112.41 -117.49,-112.41l-551.77 0c-76.64,0 -112.42,35.78 -112.42,112.41l0 1328.32 -2390.99 0 0 -1328.32c0,-76.63 -35.78,-112.41 -112.41,-112.41l-551.78 0zm4628.73 0c-76.64,0 -117.49,35.78 -117.49,112.41l0 3351.46c0,76.63 40.85,112.42 117.49,112.42l551.77 0c76.63,0 112.42,-35.8 112.42,-112.42l0 -3351.46c0,-76.63 -35.8,-112.41 -112.42,-112.41l-551.77 0zm1210.88 1542.94c-61.31,0 -91.96,30.65 -91.96,91.96l0 367.84c0,61.31 30.65,91.96 91.96,91.96l1537.77 0c61.31,0 91.96,-30.65 91.96,-91.96l0 -367.84c0,-61.31 -30.65,-91.96 -91.96,-91.96l-1537.77 0zm2544.27 -1542.94c-311.68,0 -459.81,117.49 -459.81,531.31l0 2932.57c0,76.63 40.85,112.42 117.47,112.42l536.45 0c76.63,0 112.42,-35.8 112.42,-112.42l0 -2666.87c0,-35.78 10.19,-51.12 40.85,-51.12l45.97 0c30.65,0 45.99,10.25 66.45,35.78l1905.66 2493.22c204.38,270.76 281.01,301.41 592.61,301.41l439.42 0c311.6,0 459.81,-117.49 459.81,-531.32l0 -2932.57c0,-76.63 -35.8,-112.41 -112.42,-112.41l-536.45 0c-76.63,0 -112.41,35.78 -112.41,112.41l0 2666.89c0,35.78 -15.33,51.1 -40.86,51.1l-45.97 0c-30.65,0 -51.12,-10.25 -66.43,-35.78l-1900.53 -2493.21c-194.13,-260.56 -265.69,-301.41 -592.63,-301.41l-449.6 0zm5926.36 0c-1031.96,0 -1430.45,367.84 -1430.45,1348.76l0 878.77c0,980.92 398.5,1348.76 1430.45,1348.76l2247.99 0c76.63,0 117.49,-35.8 117.49,-112.42l0 -485.33c0,-76.63 -40.86,-112.42 -117.49,-112.42l-2232.66 0c-531.32,0 -679.45,-158.33 -679.45,-694.77l0 -86.9 2886.58 0c76.63,0 112.36,-35.72 112.36,-112.36l0 -403.63c0,-76.64 -35.73,-112.42 -112.36,-112.42l-2886.58 0 0 -51.04c0,-536.51 148.13,-694.84 679.45,-694.84l2232.66 0c76.63,0 117.49,-35.78 117.49,-112.42l0 -485.33c0,-76.63 -40.86,-112.41 -117.49,-112.41l-2247.99 0zm6268.76 0c-81.75,0 -122.61,25.53 -163.46,71.5l-1180.24 1185.3 -1113.73 -1185.3c-40.85,-45.97 -81.77,-71.5 -163.46,-71.5l-699.97 0c-91.96,0 -91.96,86.83 -51.05,132.81l1517.37 1563.4 -1680.89 1747.26c-45.99,45.99 -40.86,132.82 45.97,132.82l664.19 0c86.83,0 122.61,-20.46 168.59,-71.51l1267.01 -1323.24 1261.93 1323.24c40.91,51.05 81.77,71.51 163.52,71.51l699.91 0c91.96,0 97.09,-86.83 51.12,-132.82l-1639.98 -1721.74 1568.42 -1588.93c45.97,-45.97 40.91,-132.81 -51.05,-132.81l-664.19 0zm1134.19 0c-76.63,0 -117.53,35.78 -117.53,112.41l0 500.67c0,76.63 40.91,117.49 117.53,117.49l1604.2 0 0 2733.31c0,76.63 35.78,112.42 112.42,112.42l556.83 0c76.69,0 112.41,-35.8 112.41,-112.42l0 -2733.31 1604.26 0c76.63,0 117.49,-40.86 117.49,-117.49l0 -500.67c0,-76.63 -40.86,-112.41 -117.49,-112.41l-3990.13 0z"/>
 </g>
</svg>
